<?xml version="1.0" encoding="UTF-8"?>
<!DOCTYPE svg PUBLIC "-//W3C//DTD SVG 1.1//EN" "http://www.w3.org/Graphics/SVG/1.1/DTD/svg11.dtd">
<!-- Creator: CorelDRAW X7 -->
<svg xmlns="http://www.w3.org/2000/svg" xml:space="preserve" width="300mm" height="300mm" version="1.1" style="shape-rendering:geometricPrecision; text-rendering:geometricPrecision; image-rendering:optimizeQuality; fill-rule:evenodd; clip-rule:evenodd"
viewBox="0 0 30000 30000"
 xmlns:xlink="http://www.w3.org/1999/xlink">
 <defs>
  <style type="text/css">
   <![CDATA[
    .fil0 {fill:#FFF000}
    .fil2 {fill:#E62129}
    .fil1 {fill:#2F318B}
   ]]>
  </style>
 </defs>
 <g id="Layer_x0020_1">
  <metadata id="CorelCorpID_0Corel-Layer"/>
  <g id="_1987850594720">
   <polygon class="fil0" points="3726,0 26274,0 26274,30000 3726,30000 "/>
   <polygon class="fil1" points="4618,10620 4727,10505 4837,10396 4949,10292 5065,10196 5185,10106 5304,10020 5427,9943 5550,9870 5676,9803 5802,9743 5932,9687 6062,9638 6193,9594 6327,9554 6462,9521 6597,9493 6732,9470 6869,9452 7008,9438 7144,9431 7423,9428 7702,9445 7981,9478 8260,9531 8536,9600 8811,9684 8978,9745 9143,9817 9306,9899 9469,9987 10113,10377 10434,10569 10757,10745 10919,10822 11080,10889 11163,10917 11243,10943 11326,10966 11408,10985 11492,11001 11578,11013 11664,11022 11752,11025 11840,11027 11929,11024 12110,11010 12293,10983 12479,10945 12665,10897 12856,10840 13240,10699 13630,10534 14417,10154 15204,9761 15591,9577 15974,9414 16348,9277 16532,9221 16713,9173 16890,9136 17065,9112 17237,9100 17321,9098 17404,9100 17648,9117 17876,9147 18092,9186 18295,9236 18486,9294 18669,9361 18841,9436 19004,9519 19160,9607 19309,9699 19590,9898 20108,10322 20617,10743 20885,10934 21025,11024 21173,11106 21325,11182 21485,11252 21654,11311 21833,11362 22020,11404 22219,11436 22429,11455 22654,11462 22836,11427 23012,11387 23182,11338 23347,11282 23508,11218 23666,11145 23824,11061 23982,10968 24142,10862 24303,10747 24636,10473 24993,10145 25382,9752 25375,11976 24956,12252 24554,12485 24171,12681 23805,12839 23454,12965 23284,13015 23119,13057 22956,13092 22798,13120 22643,13139 22491,13153 22343,13160 22269,13162 22233,13162 22198,13162 22055,13157 21915,13144 21780,13129 21645,13107 21515,13081 21387,13050 21261,13013 21138,12974 20897,12883 20666,12778 20443,12660 20227,12536 20017,12402 19611,12122 18844,11566 18657,11439 18471,11322 18283,11217 18093,11124 17999,11083 17902,11048 17806,11017 17709,10989 17611,10968 17511,10950 17411,10938 17309,10933 17239,10931 17165,10933 17092,10940 17016,10950 16939,10964 16860,10983 16779,11006 16698,11031 16530,11092 16356,11166 15991,11341 14330,12225 13872,12436 13637,12530 13396,12616 13154,12694 12908,12758 12659,12811 12408,12850 12152,12872 11896,12878 11766,12874 11635,12865 11505,12851 11373,12832 11240,12809 11108,12779 10975,12743 10840,12702 10706,12655 10571,12601 10436,12541 10301,12474 9787,12152 9304,11873 8852,11638 8427,11448 8224,11371 8025,11304 7834,11248 7646,11206 7466,11173 7288,11154 7116,11145 6948,11147 6785,11162 6704,11173 6625,11189 6546,11206 6467,11225 6390,11250 6315,11276 6239,11306 6164,11338 6015,11413 5869,11499 5725,11597 5585,11708 5444,11831 5304,11964 5167,12111 5028,12271 4892,12443 4618,12823 "/>
   <polygon class="fil1" points="4618,14543 4727,14427 4837,14319 4949,14215 5065,14119 5185,14029 5304,13943 5427,13866 5550,13792 5676,13726 5802,13666 5932,13610 6062,13561 6193,13517 6327,13477 6462,13443 6597,13415 6732,13393 6869,13375 7008,13361 7144,13354 7423,13350 7702,13368 7981,13401 8260,13454 8536,13522 8811,13607 8978,13668 9143,13740 9306,13822 9469,13910 10113,14299 10434,14492 10757,14668 10919,14745 11080,14811 11163,14840 11243,14866 11326,14889 11408,14908 11492,14924 11578,14936 11664,14945 11752,14948 11840,14950 11929,14947 12110,14933 12293,14906 12479,14868 12665,14820 12856,14762 13240,14622 13630,14457 14417,14077 15204,13684 15591,13500 15974,13336 16348,13200 16532,13143 16713,13096 16890,13059 17065,13035 17237,13022 17321,13021 17404,13022 17648,13040 17876,13070 18092,13108 18295,13159 18486,13217 18669,13284 18841,13359 19004,13442 19160,13529 19309,13622 19590,13820 20108,14245 20617,14666 20885,14857 21025,14947 21173,15029 21325,15104 21485,15175 21654,15234 21833,15285 22020,15327 22219,15359 22429,15378 22654,15385 22836,15350 23012,15310 23182,15261 23347,15204 23508,15141 23666,15068 23824,14983 23982,14890 24142,14785 24303,14669 24636,14396 24993,14068 25382,13675 25375,15899 24956,16174 24554,16408 24171,16604 23805,16762 23454,16888 23284,16937 23119,16979 22956,17014 22798,17043 22643,17062 22491,17076 22343,17083 22269,17085 22233,17085 22198,17085 22055,17079 21915,17067 21780,17051 21645,17030 21515,17004 21387,16972 21261,16936 21138,16897 20897,16806 20666,16701 20443,16583 20227,16458 20017,16325 19611,16045 18844,15489 18657,15362 18471,15245 18283,15139 18093,15047 17999,15006 17902,14971 17806,14940 17709,14911 17611,14890 17511,14873 17411,14861 17309,14855 17239,14854 17165,14855 17092,14862 17016,14873 16939,14887 16860,14906 16779,14929 16698,14954 16530,15015 16356,15089 15991,15264 14330,16148 13872,16358 13637,16453 13396,16539 13154,16616 12908,16681 12659,16734 12408,16772 12152,16795 11896,16800 11766,16797 11635,16788 11505,16774 11373,16755 11240,16732 11108,16702 10975,16665 10840,16625 10706,16578 10571,16523 10436,16464 10301,16397 9787,16074 9304,15795 8852,15560 8427,15371 8224,15294 8025,15227 7834,15171 7646,15129 7466,15096 7288,15076 7116,15068 6948,15069 6785,15085 6704,15096 6625,15111 6546,15129 6467,15148 6390,15173 6315,15199 6239,15229 6164,15261 6015,15336 5869,15422 5725,15520 5585,15631 5444,15753 5304,15887 5167,16034 5028,16194 4892,16366 4618,16746 "/>
   <polygon class="fil1" points="4618,18466 4727,18350 4837,18241 4949,18138 5065,18041 5185,17952 5304,17866 5427,17789 5550,17715 5676,17649 5802,17589 5932,17533 6062,17484 6193,17440 6327,17400 6462,17366 6597,17338 6732,17315 6869,17298 7008,17284 7144,17277 7423,17273 7702,17291 7981,17324 8260,17377 8536,17445 8811,17529 8978,17591 9143,17663 9306,17745 9469,17833 10113,18222 10434,18415 10757,18590 10919,18668 11080,18734 11163,18762 11243,18789 11326,18811 11408,18831 11492,18847 11578,18859 11664,18868 11752,18871 11840,18873 11929,18869 12110,18855 12293,18829 12479,18790 12665,18743 12856,18685 13240,18545 13630,18380 14417,17999 15204,17606 15591,17422 15974,17259 16348,17122 16532,17066 16713,17019 16890,16982 17065,16958 17237,16945 17321,16943 17404,16945 17648,16963 17876,16993 18092,17031 18295,17082 18486,17140 18669,17207 18841,17282 19004,17364 19160,17452 19309,17545 19590,17743 20108,18168 20617,18589 20885,18780 21025,18869 21173,18952 21325,19027 21485,19097 21654,19157 21833,19208 22020,19250 22219,19282 22429,19301 22654,19308 22836,19273 23012,19232 23182,19183 23347,19127 23508,19064 23666,18990 23824,18906 23982,18813 24142,18708 24303,18592 24636,18319 24993,17991 25382,17598 25375,19822 24956,20097 24554,20330 24171,20527 23805,20685 23454,20811 23284,20860 23119,20902 22956,20937 22798,20965 22643,20985 22491,20999 22343,21006 22269,21007 22233,21007 22198,21007 22055,21002 21915,20990 21780,20974 21645,20953 21515,20927 21387,20895 21261,20858 21138,20820 20897,20729 20666,20623 20443,20506 20227,20381 20017,20248 19611,19967 18844,19411 18657,19285 18471,19168 18283,19062 18093,18969 17999,18929 17902,18894 17806,18862 17709,18834 17611,18813 17511,18796 17411,18783 17309,18778 17239,18776 17165,18778 17092,18785 17016,18796 16939,18810 16860,18829 16779,18852 16698,18876 16530,18938 16356,19011 15991,19187 14330,20071 13872,20281 13637,20376 13396,20462 13154,20539 12908,20604 12659,20657 12408,20695 12152,20718 11896,20723 11766,20720 11635,20711 11505,20697 11373,20678 11240,20655 11108,20625 10975,20588 10840,20548 10706,20501 10571,20446 10436,20387 10301,20320 9787,19997 9304,19718 8852,19483 8427,19294 8224,19217 8025,19150 7834,19094 7646,19052 7466,19018 7288,18999 7116,18990 6948,18992 6785,19008 6704,19018 6625,19034 6546,19052 6467,19071 6390,19096 6315,19122 6239,19152 6164,19183 6015,19259 5869,19345 5725,19443 5585,19553 5444,19676 5304,19809 5167,19957 5028,20116 4892,20288 4618,20669 "/>
   <polygon class="fil2" points="13259,2096 17685,2052 12365,13984 21843,11080 14310,27948 18132,14746 7783,17471 "/>
  </g>
 </g>
</svg>
